<svg width="48" height="48" viewBox="0 0 48 48" fill="none" xmlns="http://www.w3.org/2000/svg">
<g clip-path="url(#clip0_6557_10552)">
<rect width="48" height="48" rx="12" fill="#609BF4"/>
<rect x="0.1875" y="0.1875" width="47.625" height="47.625" rx="11.8125" stroke="black" stroke-opacity="0.1" stroke-width="0.375"/>
<path d="M31.4635 22.8713C32.1481 23.3205 32.4904 23.545 32.5521 23.8525C32.5716 23.9499 32.5716 24.0502 32.5521 24.1476C32.4904 24.4551 32.1481 24.6797 31.4635 25.1288L24.067 29.9816C23.2557 30.5138 22.85 30.78 22.5192 30.6849C22.4154 30.655 22.3193 30.6031 22.2374 30.5327C21.9764 30.3083 21.9764 29.8231 21.9764 28.8528L21.9764 19.1474C21.9764 18.177 21.9764 17.6919 22.2374 17.4674C22.3193 17.397 22.4154 17.3451 22.5192 17.3153C22.85 17.2202 23.2557 17.4863 24.067 18.0186L31.4635 22.8713Z" fill="white" fill-opacity="0.8"/>
<path d="M38.0948 23.6338C38.143 23.8755 38.143 24.1245 38.0948 24.3662C38.0374 24.6546 37.8416 24.9802 37.2726 25.4658C36.699 25.9552 35.8607 26.5149 34.6661 27.3096L24.4874 34.0801C23.0477 35.0378 22.0248 35.7171 21.2179 36.124C20.4059 36.5335 19.9765 36.5786 19.6749 36.4932C19.4145 36.4193 19.1726 36.2902 18.9669 36.1143C18.7288 35.9104 18.5298 35.5275 18.421 34.625C18.3129 33.7277 18.3116 32.4999 18.3116 30.7705L18.3116 17.2295C18.3116 15.5001 18.3129 14.2723 18.421 13.375C18.5298 12.4725 18.7288 12.0896 18.9669 11.8857C19.1726 11.7098 19.4145 11.5807 19.6749 11.5068C19.9765 11.4214 20.4059 11.4665 21.2179 11.876C22.0248 12.2829 23.0477 12.9622 24.4874 13.9199L34.6661 20.6904C35.8607 21.4851 36.699 22.0448 37.2726 22.5342C37.8416 23.0198 38.0374 23.3454 38.0948 23.6338Z" stroke="white" stroke-width="1.5" stroke-linejoin="round"/>
<path opacity="0.8" d="M13.771 10.4612C14.5178 10.2185 15.3892 10.5015 16.7222 11.1985C16.0345 12.0396 16.0327 13.6319 16.0327 16.5959V31.4045C16.0327 34.3683 16.0348 35.9598 16.7222 36.801C15.3891 37.4981 14.5178 37.781 13.771 37.5383C13.4213 37.4246 13.099 37.2385 12.8257 36.9924C11.9574 36.2103 11.9575 34.6082 11.9575 31.4045V16.5959C11.9575 13.392 11.9572 11.7891 12.8257 11.0071C13.099 10.761 13.4212 10.5749 13.771 10.4612Z" fill="white"/>
</g>
<defs>
<clipPath id="clip0_6557_10552">
<rect width="48" height="48" fill="white"/>
</clipPath>
</defs>
</svg>
