<svg width="16" height="16" viewBox="0 0 16 16" fill="none" xmlns="http://www.w3.org/2000/svg">
<g clip-path="url(#clip0_6557_10560)">
<rect width="16" height="16" rx="4" fill="#609BF4"/>
<rect x="0.0625" y="0.0625" width="15.875" height="15.875" rx="3.9375" stroke="black" stroke-opacity="0.1" stroke-width="0.125"/>
<path d="M10.4878 7.62362C10.716 7.77333 10.8301 7.84818 10.8507 7.95068C10.8572 7.98315 10.8572 8.01659 10.8507 8.04905C10.8301 8.15155 10.716 8.22641 10.4878 8.37612L8.02228 9.99369C7.75185 10.1711 7.61663 10.2598 7.50636 10.2281C7.47176 10.2182 7.43972 10.2009 7.41243 10.1774C7.32543 10.1026 7.32543 9.94088 7.32543 9.61744L7.32543 6.38229C7.32543 6.05885 7.32543 5.89713 7.41243 5.82232C7.43972 5.79885 7.47176 5.78155 7.50636 5.77161C7.61663 5.7399 7.75185 5.82862 8.02228 6.00604L10.4878 7.62362Z" fill="white" fill-opacity="0.8"/>
<path d="M12.6984 8.12207C12.6792 8.2182 12.6136 8.32641 12.4239 8.48828C12.2328 8.65141 11.9539 8.83867 11.5558 9.10352L8.16223 11.3604C7.68251 11.6795 7.34129 11.9054 7.07239 12.041C6.80194 12.1774 6.65923 12.1925 6.55872 12.1641C6.47188 12.1395 6.39097 12.0968 6.32239 12.0381C6.24306 11.9702 6.17701 11.8426 6.14075 11.542C6.10471 11.2429 6.10364 10.8333 6.10364 10.2568L6.10364 5.74316C6.10364 5.1667 6.10471 4.7571 6.14075 4.45801C6.17701 4.15744 6.24306 4.02984 6.32239 3.96191C6.39097 3.90324 6.47188 3.86054 6.55872 3.83594C6.65923 3.8075 6.80194 3.82262 7.07239 3.95898C7.34129 4.09459 7.68251 4.32053 8.16223 4.63965L11.5558 6.89648C11.9539 7.16133 12.2328 7.34859 12.4239 7.51172C12.6136 7.67358 12.6792 7.7818 12.6984 7.87793C12.7144 7.95851 12.7144 8.04149 12.6984 8.12207Z" stroke="white" stroke-width="0.5" stroke-linejoin="round"/>
<path opacity="0.8" d="M4.59033 3.48772C4.83907 3.40691 5.12904 3.5009 5.57275 3.73284C5.34398 4.01332 5.34424 4.54446 5.34424 5.53167V10.4682C5.34424 11.4546 5.34467 11.9853 5.57275 12.266C5.1287 12.4982 4.83918 12.594 4.59033 12.5131C4.47372 12.4752 4.36602 12.4135 4.2749 12.3315C3.9854 12.0708 3.98584 11.5362 3.98584 10.4682V5.53167C3.98584 4.4642 3.98568 3.9301 4.2749 3.66936C4.36598 3.58736 4.47378 3.52562 4.59033 3.48772Z" fill="white"/>
</g>
<defs>
<clipPath id="clip0_6557_10560">
<rect width="16" height="16" fill="white"/>
</clipPath>
</defs>
</svg>
