<svg width="128" height="128" viewBox="0 0 128 128" fill="none" xmlns="http://www.w3.org/2000/svg">
<g clip-path="url(#clip0_6557_10525)">
<rect width="128" height="128" rx="32" fill="#609BF4"/>
<rect x="0.5" y="0.5" width="127" height="127" rx="31.5" stroke="black" stroke-opacity="0.1"/>
<path d="M83.9026 60.9899C85.7282 62.1876 86.6409 62.7865 86.8055 63.6064C86.8576 63.8662 86.8576 64.1337 86.8055 64.3934C86.6409 65.2134 85.7282 65.8122 83.9026 67.0099L64.1785 79.9505C62.015 81.3699 60.9333 82.0796 60.0511 81.826C59.7743 81.7464 59.518 81.608 59.2997 81.4203C58.6037 80.8218 58.6037 79.528 58.6037 76.9405L58.6037 51.0593C58.6037 48.4718 58.6037 47.178 59.2997 46.5795C59.518 46.3918 59.7743 46.2534 60.0511 46.1738C60.9333 45.9202 62.015 46.6299 64.1785 48.0493L83.9026 60.9899Z" fill="white" fill-opacity="0.8"/>
<path d="M101.585 63.0225C101.714 63.6678 101.714 64.3322 101.585 64.9775C101.432 65.7466 100.911 66.6143 99.3939 67.9092C97.8643 69.2144 95.6278 70.7058 92.4418 72.8252L65.3011 90.8799C61.4614 93.4341 58.7334 95.2449 56.5814 96.3301C54.4161 97.422 53.2715 97.5442 52.4672 97.3164C51.7724 97.1195 51.1281 96.7741 50.5795 96.3047C49.9443 95.7612 49.4116 94.7406 49.1215 92.333C48.8332 89.9403 48.8304 86.6663 48.8304 82.0547L48.8304 45.9453C48.8304 41.3337 48.8332 38.0597 49.1215 35.667C49.4116 33.2594 49.9443 32.2388 50.5795 31.6953C51.1281 31.2259 51.7724 30.8804 52.4672 30.6836C53.2715 30.4558 54.4161 30.578 56.5814 31.6699C58.7334 32.7551 61.4614 34.5659 65.3011 37.1201L92.4418 55.1748C95.6278 57.2942 97.8643 58.7856 99.3939 60.0908C100.911 61.3857 101.432 62.2534 101.585 63.0225Z" stroke="white" stroke-width="4" stroke-linejoin="round"/>
<path opacity="0.8" d="M36.7236 27.8972C38.7144 27.2505 41.0364 28.0037 44.5889 29.8611C42.7559 32.1044 42.7549 36.3516 42.7549 44.2546V83.7449C42.7549 91.6473 42.7564 95.894 44.5889 98.1375C41.036 99.9951 38.7145 100.749 36.7236 100.102C35.7908 99.7992 34.932 99.3034 34.2031 98.6472C31.887 96.5618 31.8867 92.2889 31.8867 83.7449V44.2546C31.8867 35.7106 31.887 31.4387 34.2031 29.3533C34.9321 28.6969 35.7907 28.2003 36.7236 27.8972Z" fill="white"/>
</g>
<defs>
<clipPath id="clip0_6557_10525">
<rect width="128" height="128" fill="white"/>
</clipPath>
</defs>
</svg>
